<?xml version="1.0" standalone="no"?><!DOCTYPE svg PUBLIC "-//W3C//DTD SVG 1.1//EN" "http://www.w3.org/Graphics/SVG/1.1/DTD/svg11.dtd"><svg t="1630906218770" class="icon" viewBox="0 0 1024 1024" version="1.1" xmlns="http://www.w3.org/2000/svg" p-id="5586" xmlns:xlink="http://www.w3.org/1999/xlink" width="200" height="200"><defs><style type="text/css"></style></defs><path d="M757.76 598.016l73.728 0 0 73.728-73.728 0 0-73.728Z" p-id="5587"></path><path d="M757.76 466.944l73.728 0 0 73.728-73.728 0 0-73.728Z" p-id="5588"></path><path d="M417.792 598.016l73.728 0 0 73.728-73.728 0 0-73.728Z" p-id="5589"></path><path d="M532.48 729.088l73.728 0 0 73.728-73.728 0 0-73.728Z" p-id="5590"></path><path d="M851.968 163.84l-73.728 0L778.24 106.496c0-12.288-8.192-20.48-20.48-20.48-12.288 0-20.48 8.192-20.48 20.48L737.28 163.84 286.72 163.84 286.72 106.496c0-12.288-8.192-20.48-20.48-20.48S249.856 98.304 249.856 106.496L249.856 163.84 172.032 163.84c-40.96 0-73.728 32.768-73.728 73.728l0 114.688 0 36.864 0 450.56c0 40.96 32.768 73.728 73.728 73.728l679.936 0c40.96 0 73.728-32.768 73.728-73.728l0-450.56L925.696 352.256 925.696 237.568C925.696 196.608 892.928 163.84 851.968 163.84zM888.832 843.776c0 20.48-16.384 36.864-36.864 36.864L172.032 880.64c-20.48 0-36.864-16.384-36.864-36.864l0-450.56 753.664 0L888.832 843.776zM888.832 352.256 135.168 352.256 135.168 237.568c0-20.48 16.384-36.864 36.864-36.864l73.728 0 0 57.344c0 12.288 8.192 20.48 20.48 20.48S286.72 270.336 286.72 258.048L286.72 200.704l450.56 0 0 57.344c0 12.288 8.192 20.48 20.48 20.48 12.288 0 20.48-8.192 20.48-20.48L778.24 200.704l73.728 0c20.48 0 36.864 16.384 36.864 36.864L888.832 352.256z" p-id="5591"></path><path d="M532.48 598.016l73.728 0 0 73.728-73.728 0 0-73.728Z" p-id="5592"></path><path d="M417.792 466.944l73.728 0 0 73.728-73.728 0 0-73.728Z" p-id="5593"></path><path d="M532.48 466.944l73.728 0 0 73.728-73.728 0 0-73.728Z" p-id="5594"></path><path d="M643.072 466.944l73.728 0 0 73.728-73.728 0 0-73.728Z" p-id="5595"></path><path d="M643.072 598.016l73.728 0 0 73.728-73.728 0 0-73.728Z" p-id="5596"></path><path d="M192.512 598.016l73.728 0 0 73.728-73.728 0 0-73.728Z" p-id="5597"></path><path d="M417.792 729.088l73.728 0 0 73.728-73.728 0 0-73.728Z" p-id="5598"></path><path d="M192.512 466.944l73.728 0 0 73.728-73.728 0 0-73.728Z" p-id="5599"></path><path d="M303.104 466.944l73.728 0 0 73.728-73.728 0 0-73.728Z" p-id="5600"></path><path d="M303.104 598.016l73.728 0 0 73.728-73.728 0 0-73.728Z" p-id="5601"></path><path d="M303.104 729.088l73.728 0 0 73.728-73.728 0 0-73.728Z" p-id="5602"></path><path d="M192.512 729.088l73.728 0 0 73.728-73.728 0 0-73.728Z" p-id="5603"></path></svg>