<?xml version="1.0" standalone="no"?><!DOCTYPE svg PUBLIC "-//W3C//DTD SVG 1.1//EN" "http://www.w3.org/Graphics/SVG/1.1/DTD/svg11.dtd"><svg t="1630897074878" class="icon" viewBox="0 0 1195 1024" version="1.1" xmlns="http://www.w3.org/2000/svg" p-id="3906" xmlns:xlink="http://www.w3.org/1999/xlink" width="233.3984375" height="200"><defs><style type="text/css"></style></defs><path d="M309.95844 629.901722v338.686598L847.594242 375.148433 309.95844 629.901722z" fill="#D1D3D4" p-id="3907"></path><path d="M309.95844 1009.894082a41.305762 41.305762 0 0 1-41.305762-41.305762V629.922375a41.326415 41.326415 0 0 1 23.606243-37.340409l537.635802-254.753289a41.305762 41.305762 0 0 1 48.327742 65.056576L340.56601 996.325139a41.305762 41.305762 0 0 1-30.60757 13.568943z m41.305762-353.845812v205.413555l326.108994-359.938412z" fill="#231F20" p-id="3908"></path><path d="M379.930401 682.752445L1153.979734 48.998134l-353.164268 933.675451-420.885065-299.92114z" fill="#FFFFFF" p-id="3909"></path><path d="M800.815466 1023.979347a41.305762 41.305762 0 0 1-23.957342-7.682872L355.973059 716.395988a41.305762 41.305762 0 0 1-2.189205-65.614203L1127.812533 17.048127a41.305762 41.305762 0 0 1 64.808741 46.572247l-353.164267 933.675451a41.305762 41.305762 0 0 1-38.620888 26.683522zM447.919686 680.480628l333.234237 237.446174L1060.752628 178.718881z" fill="#231F20" p-id="3910"></path><path d="M41.305762 438.036456L379.930401 679.923 1153.979734 41.335915 41.305762 438.036456z" fill="#FFFFFF" p-id="3911"></path><path d="M379.930401 721.228763a41.099233 41.099233 0 0 1-23.998647-7.703525L17.307114 471.638694a41.305762 41.305762 0 0 1 10.119912-72.491613L1140.100997 2.405235a41.305762 41.305762 0 0 1 40.149201 70.777423L406.242172 711.790396a41.223151 41.223151 0 0 1-26.291118 9.438367zM129.658788 450.386879l248.45416 177.490861 567.954231-468.572567z" fill="#231F20" p-id="3912"></path></svg>