<?xml version="1.0" standalone="no"?><!DOCTYPE svg PUBLIC "-//W3C//DTD SVG 1.1//EN" "http://www.w3.org/Graphics/SVG/1.1/DTD/svg11.dtd"><svg t="1631675330222" class="icon" viewBox="0 0 1024 1024" version="1.1" xmlns="http://www.w3.org/2000/svg" p-id="2832" xmlns:xlink="http://www.w3.org/1999/xlink" width="200" height="200"><defs><style type="text/css"></style></defs><path d="M352 318.144c125.44 0 228.864 120.064 110.08 344.512-39.04 73.728 43.328 91.264 129.92 111.232 66.56 15.36 78.016 46.016 79.744 97.088l0.256 27.264-0.128 59.904H32.128v-79.168l0.64-17.792c3.008-45.248 17.024-72.96 79.232-87.296l35.968-8.384 17.344-4.48c62.272-16.768 108.16-40.064 76.608-98.368-119.104-219.84-17.792-344.512 110.08-344.512z m0 64c-97.6 0-139.2 92.416-53.76 250.048 33.984 62.848 18.304 123.136-37.12 158.72-25.152 16.128-49.408 24.832-97.28 36.608l-51.584 12.096c-12.672 3.392-15.616 7.36-16.192 26.496l-0.064 28.032h511.936l0.128-21.504c-0.192-24.832-2.368-29.312-16.256-33.024l-25.088-5.824c-65.984-15.296-96-24.576-125.376-44.032-53.888-35.712-68.608-95.104-35.84-157.056 84.992-160.512 43.648-250.56-53.504-250.56z m289.408-350.72a384 384 0 0 1 83.2 748.544l-15.232 4.48-16.96-61.696a320.128 320.128 0 1 0-344.576-495.36l-8.256 12.16-53.632-35.008A383.872 383.872 0 0 1 641.408 31.424zM640 222.144v187.008l134.272 77.568-32 55.424L576 446.144v-224h64z" fill="#dbdbdb" p-id="2833"></path></svg>