<?xml version="1.0" standalone="no"?><!DOCTYPE svg PUBLIC "-//W3C//DTD SVG 1.1//EN" "http://www.w3.org/Graphics/SVG/1.1/DTD/svg11.dtd"><svg t="1630905826205" class="icon" viewBox="0 0 1024 1024" version="1.1" xmlns="http://www.w3.org/2000/svg" p-id="3804" xmlns:xlink="http://www.w3.org/1999/xlink" width="200" height="200"><defs><style type="text/css"></style></defs><path d="M164.152672 1024a39.083969 39.083969 0 0 1-39.08397-39.083969V719.145038a46.900763 46.900763 0 0 1 39.08397-39.083969 39.083969 39.083969 0 0 1 39.083969 39.083969v265.770993a39.083969 39.083969 0 0 1-39.083969 39.083969zM406.473282 1024a39.083969 39.083969 0 0 1-39.083969-39.083969V601.89313a39.083969 39.083969 0 0 1 39.083969-39.08397 39.083969 39.083969 0 0 1 39.08397 39.08397v383.022901a39.083969 39.083969 0 0 1-39.08397 39.083969zM672.244275 1024a39.083969 39.083969 0 0 1-39.08397-39.083969V500.274809a39.083969 39.083969 0 0 1 39.08397-39.083969 39.083969 39.083969 0 0 1 39.083969 39.083969v484.641222a39.083969 39.083969 0 0 1-39.083969 39.083969zM945.832061 1024a39.083969 39.083969 0 0 1-39.083969-39.083969V375.206107a39.083969 39.083969 0 0 1 78.167939 0v609.709924a39.083969 39.083969 0 0 1-39.08397 39.083969zM46.900763 664.427481a54.717557 54.717557 0 0 1-39.083969-31.267176 70.351145 70.351145 0 0 1 23.450382-46.900763l351.755725-312.671756a46.900763 46.900763 0 0 1 46.900763 0L554.992366 367.389313 875.480916 78.167939H781.679389a39.083969 39.083969 0 0 1-39.083969-39.08397 39.083969 39.083969 0 0 1 39.083969-39.083969h195.419848c15.633588 0 31.267176 7.816794 31.267175 23.450382a39.083969 39.083969 0 0 1-7.816794 46.900763L578.442748 453.374046a46.900763 46.900763 0 0 1-46.900763 0L406.473282 359.572519C78.167939 656.610687 70.351145 656.610687 54.717557 664.427481z" p-id="3805" fill="#e6e6e6"></path><path d="M977.099237 250.137405a39.083969 39.083969 0 0 1-39.08397-39.08397V39.083969a39.083969 39.083969 0 0 1 39.08397-39.083969 39.083969 39.083969 0 0 1 39.083969 39.083969v171.969466a39.083969 39.083969 0 0 1-39.083969 39.08397z" p-id="3806" fill="#e6e6e6"></path></svg>